<mxfile host="app.diagrams.net" agent="Mozilla/5.0 (Windows NT 10.0; Win64; x64; rv:132.0) Gecko/20100101 Firefox/132.0" version="24.8.6">
  <diagram name="Pagina-1" id="HPvjf4BoIUe6xeHIvJuy">
    <mxGraphModel dx="1820" dy="991" grid="1" gridSize="10" guides="1" tooltips="1" connect="1" arrows="1" fold="1" page="1" pageScale="1" pageWidth="1100" pageHeight="850" math="0" shadow="0">
      <root>
        <mxCell id="0" />
        <mxCell id="1" parent="0" />
        <mxCell id="XhJcunPItZMIZgrE6ota-2" value="" style="ellipse;whiteSpace=wrap;html=1;aspect=fixed;fillColor=#000000;" vertex="1" parent="1">
          <mxGeometry x="435" y="40" width="20" height="20" as="geometry" />
        </mxCell>
        <mxCell id="XhJcunPItZMIZgrE6ota-3" value="Attesa quote" style="rounded=1;whiteSpace=wrap;html=1;fontFamily=Century Gothic;fontStyle=1" vertex="1" parent="1">
          <mxGeometry x="385" y="80" width="120" height="40" as="geometry" />
        </mxCell>
        <mxCell id="XhJcunPItZMIZgrE6ota-4" value="Da refertare" style="rounded=1;whiteSpace=wrap;html=1;fontFamily=Century Gothic;fontStyle=1" vertex="1" parent="1">
          <mxGeometry x="265" y="510" width="120" height="40" as="geometry" />
        </mxCell>
        <mxCell id="XhJcunPItZMIZgrE6ota-5" value="" style="rhombus;whiteSpace=wrap;html=1;" vertex="1" parent="1">
          <mxGeometry x="430" y="400" width="30" height="40" as="geometry" />
        </mxCell>
        <mxCell id="XhJcunPItZMIZgrE6ota-6" value="Saldo sufficiente" style="text;html=1;align=center;verticalAlign=middle;resizable=0;points=[];autosize=1;strokeColor=none;fillColor=none;fontStyle=2;fontFamily=Century Gothic;" vertex="1" parent="1">
          <mxGeometry x="385" y="440" width="120" height="30" as="geometry" />
        </mxCell>
        <mxCell id="XhJcunPItZMIZgrE6ota-7" value="Annullata" style="rounded=1;whiteSpace=wrap;html=1;fontFamily=Century Gothic;fontStyle=1" vertex="1" parent="1">
          <mxGeometry x="505" y="510" width="120" height="40" as="geometry" />
        </mxCell>
        <mxCell id="XhJcunPItZMIZgrE6ota-8" value="Attesa importo" style="rounded=1;whiteSpace=wrap;html=1;fontFamily=Century Gothic;fontStyle=1" vertex="1" parent="1">
          <mxGeometry x="385" y="230" width="120" height="40" as="geometry" />
        </mxCell>
        <mxCell id="XhJcunPItZMIZgrE6ota-9" value="" style="endArrow=open;endFill=1;endSize=12;html=1;rounded=0;exitX=1;exitY=0.5;exitDx=0;exitDy=0;entryX=1;entryY=0.5;entryDx=0;entryDy=0;" edge="1" parent="1" source="XhJcunPItZMIZgrE6ota-7" target="XhJcunPItZMIZgrE6ota-8">
          <mxGeometry width="160" relative="1" as="geometry">
            <mxPoint x="660" y="419.58" as="sourcePoint" />
            <mxPoint x="820" y="419.58" as="targetPoint" />
            <Array as="points">
              <mxPoint x="670" y="530" />
              <mxPoint x="670" y="250" />
            </Array>
          </mxGeometry>
        </mxCell>
        <mxCell id="XhJcunPItZMIZgrE6ota-10" value="" style="endArrow=open;endFill=1;endSize=12;html=1;rounded=0;exitX=0.5;exitY=1;exitDx=0;exitDy=0;entryX=0.5;entryY=0;entryDx=0;entryDy=0;" edge="1" parent="1" source="XhJcunPItZMIZgrE6ota-3" target="XhJcunPItZMIZgrE6ota-8">
          <mxGeometry width="160" relative="1" as="geometry">
            <mxPoint x="320" y="270" as="sourcePoint" />
            <mxPoint x="480" y="270" as="targetPoint" />
          </mxGeometry>
        </mxCell>
        <mxCell id="XhJcunPItZMIZgrE6ota-11" value="" style="endArrow=open;endFill=1;endSize=12;html=1;rounded=0;exitX=0.5;exitY=1;exitDx=0;exitDy=0;entryX=0.5;entryY=0;entryDx=0;entryDy=0;" edge="1" parent="1" source="XhJcunPItZMIZgrE6ota-8" target="XhJcunPItZMIZgrE6ota-5">
          <mxGeometry width="160" relative="1" as="geometry">
            <mxPoint x="445" y="320" as="sourcePoint" />
            <mxPoint x="480" y="400" as="targetPoint" />
          </mxGeometry>
        </mxCell>
        <mxCell id="XhJcunPItZMIZgrE6ota-12" value="" style="endArrow=open;endFill=1;endSize=12;html=1;rounded=0;exitX=1;exitY=0.5;exitDx=0;exitDy=0;entryX=0.5;entryY=0;entryDx=0;entryDy=0;" edge="1" parent="1" source="XhJcunPItZMIZgrE6ota-5" target="XhJcunPItZMIZgrE6ota-7">
          <mxGeometry width="160" relative="1" as="geometry">
            <mxPoint x="470" y="400" as="sourcePoint" />
            <mxPoint x="630" y="400" as="targetPoint" />
            <Array as="points">
              <mxPoint x="565" y="420" />
            </Array>
          </mxGeometry>
        </mxCell>
        <mxCell id="XhJcunPItZMIZgrE6ota-13" value="No" style="text;html=1;align=center;verticalAlign=middle;resizable=0;points=[];autosize=1;strokeColor=none;fillColor=none;fontFamily=Century Gothic;" vertex="1" parent="1">
          <mxGeometry x="465" y="390" width="40" height="30" as="geometry" />
        </mxCell>
        <mxCell id="XhJcunPItZMIZgrE6ota-14" value="" style="endArrow=open;endFill=1;endSize=12;html=1;rounded=0;exitX=0;exitY=0.5;exitDx=0;exitDy=0;entryX=0.5;entryY=0;entryDx=0;entryDy=0;" edge="1" parent="1" source="XhJcunPItZMIZgrE6ota-5" target="XhJcunPItZMIZgrE6ota-4">
          <mxGeometry width="160" relative="1" as="geometry">
            <mxPoint x="140" y="404.58" as="sourcePoint" />
            <mxPoint x="300" y="404.58" as="targetPoint" />
            <Array as="points">
              <mxPoint x="325" y="420" />
            </Array>
          </mxGeometry>
        </mxCell>
        <mxCell id="XhJcunPItZMIZgrE6ota-15" value="Si" style="text;html=1;align=center;verticalAlign=middle;resizable=0;points=[];autosize=1;strokeColor=none;fillColor=none;fontFamily=Century Gothic;" vertex="1" parent="1">
          <mxGeometry x="385" y="390" width="30" height="30" as="geometry" />
        </mxCell>
        <mxCell id="XhJcunPItZMIZgrE6ota-24" value="" style="rhombus;whiteSpace=wrap;html=1;" vertex="1" parent="1">
          <mxGeometry x="310" y="610" width="30" height="40" as="geometry" />
        </mxCell>
        <mxCell id="XhJcunPItZMIZgrE6ota-25" value="&lt;b&gt;Tutte &lt;/b&gt;le quote hanno esito: &lt;b&gt;vincente&lt;/b&gt;" style="text;html=1;align=center;verticalAlign=middle;resizable=0;points=[];autosize=1;strokeColor=none;fillColor=none;fontStyle=2;fontFamily=Century Gothic;" vertex="1" parent="1">
          <mxGeometry x="210" y="650" width="230" height="30" as="geometry" />
        </mxCell>
        <mxCell id="XhJcunPItZMIZgrE6ota-26" value="" style="endArrow=open;endFill=1;endSize=12;html=1;rounded=0;exitX=1;exitY=0.5;exitDx=0;exitDy=0;entryX=0.5;entryY=0;entryDx=0;entryDy=0;" edge="1" parent="1" source="XhJcunPItZMIZgrE6ota-24">
          <mxGeometry width="160" relative="1" as="geometry">
            <mxPoint x="415" y="630" as="sourcePoint" />
            <mxPoint x="520" y="720" as="targetPoint" />
            <Array as="points">
              <mxPoint x="520" y="630" />
            </Array>
          </mxGeometry>
        </mxCell>
        <mxCell id="XhJcunPItZMIZgrE6ota-27" value="No" style="text;html=1;align=center;verticalAlign=middle;resizable=0;points=[];autosize=1;strokeColor=none;fillColor=none;fontFamily=Century Gothic;" vertex="1" parent="1">
          <mxGeometry x="345" y="600" width="40" height="30" as="geometry" />
        </mxCell>
        <mxCell id="XhJcunPItZMIZgrE6ota-28" value="" style="endArrow=open;endFill=1;endSize=12;html=1;rounded=0;exitX=0;exitY=0.5;exitDx=0;exitDy=0;entryX=0.5;entryY=0;entryDx=0;entryDy=0;" edge="1" parent="1" source="XhJcunPItZMIZgrE6ota-24">
          <mxGeometry width="160" relative="1" as="geometry">
            <mxPoint x="235" y="630" as="sourcePoint" />
            <mxPoint x="130" y="720" as="targetPoint" />
            <Array as="points">
              <mxPoint x="130" y="630" />
            </Array>
          </mxGeometry>
        </mxCell>
        <mxCell id="XhJcunPItZMIZgrE6ota-29" value="Si" style="text;html=1;align=center;verticalAlign=middle;resizable=0;points=[];autosize=1;strokeColor=none;fillColor=none;fontFamily=Century Gothic;" vertex="1" parent="1">
          <mxGeometry x="265" y="600" width="30" height="30" as="geometry" />
        </mxCell>
        <mxCell id="XhJcunPItZMIZgrE6ota-30" value="" style="endArrow=open;endFill=1;endSize=12;html=1;rounded=0;exitX=0.5;exitY=1;exitDx=0;exitDy=0;entryX=0.5;entryY=0;entryDx=0;entryDy=0;" edge="1" parent="1" source="XhJcunPItZMIZgrE6ota-4" target="XhJcunPItZMIZgrE6ota-24">
          <mxGeometry width="160" relative="1" as="geometry">
            <mxPoint x="390" y="540" as="sourcePoint" />
            <mxPoint x="390" y="610" as="targetPoint" />
          </mxGeometry>
        </mxCell>
        <mxCell id="XhJcunPItZMIZgrE6ota-31" value="Da pagare" style="rounded=1;whiteSpace=wrap;html=1;fontFamily=Century Gothic;fontStyle=1" vertex="1" parent="1">
          <mxGeometry x="70" y="720" width="120" height="40" as="geometry" />
        </mxCell>
        <mxCell id="XhJcunPItZMIZgrE6ota-32" value="Da NON pagare" style="rounded=1;whiteSpace=wrap;html=1;fontFamily=Century Gothic;fontStyle=1" vertex="1" parent="1">
          <mxGeometry x="465" y="720" width="120" height="40" as="geometry" />
        </mxCell>
        <mxCell id="XhJcunPItZMIZgrE6ota-34" value="" style="rhombus;whiteSpace=wrap;html=1;" vertex="1" parent="1">
          <mxGeometry x="310" y="820" width="30" height="40" as="geometry" />
        </mxCell>
        <mxCell id="XhJcunPItZMIZgrE6ota-35" value="" style="endArrow=open;endFill=1;endSize=12;html=1;rounded=0;exitX=0.5;exitY=1;exitDx=0;exitDy=0;entryX=0;entryY=0.5;entryDx=0;entryDy=0;" edge="1" parent="1" source="XhJcunPItZMIZgrE6ota-31" target="XhJcunPItZMIZgrE6ota-34">
          <mxGeometry width="160" relative="1" as="geometry">
            <mxPoint x="320" y="730" as="sourcePoint" />
            <mxPoint x="480" y="730" as="targetPoint" />
            <Array as="points">
              <mxPoint x="130" y="840" />
            </Array>
          </mxGeometry>
        </mxCell>
        <mxCell id="XhJcunPItZMIZgrE6ota-36" value="" style="endArrow=open;endFill=1;endSize=12;html=1;rounded=0;exitX=0.5;exitY=1;exitDx=0;exitDy=0;entryX=1;entryY=0.5;entryDx=0;entryDy=0;" edge="1" parent="1" source="XhJcunPItZMIZgrE6ota-32" target="XhJcunPItZMIZgrE6ota-34">
          <mxGeometry width="160" relative="1" as="geometry">
            <mxPoint x="320" y="730" as="sourcePoint" />
            <mxPoint x="480" y="730" as="targetPoint" />
            <Array as="points">
              <mxPoint x="525" y="840" />
            </Array>
          </mxGeometry>
        </mxCell>
        <mxCell id="XhJcunPItZMIZgrE6ota-37" value="" style="endArrow=open;endFill=1;endSize=12;html=1;rounded=0;exitX=0.5;exitY=1;exitDx=0;exitDy=0;" edge="1" parent="1" source="XhJcunPItZMIZgrE6ota-34" target="XhJcunPItZMIZgrE6ota-38">
          <mxGeometry width="160" relative="1" as="geometry">
            <mxPoint x="320" y="730" as="sourcePoint" />
            <mxPoint x="325" y="920" as="targetPoint" />
          </mxGeometry>
        </mxCell>
        <mxCell id="XhJcunPItZMIZgrE6ota-38" value="" style="ellipse;html=1;shape=endState;fillColor=#000000;strokeColor=#000000;" vertex="1" parent="1">
          <mxGeometry x="310" y="900" width="30" height="30" as="geometry" />
        </mxCell>
        <mxCell id="XhJcunPItZMIZgrE6ota-39" value="" style="endArrow=open;endFill=1;endSize=12;html=1;rounded=0;exitX=0.5;exitY=1;exitDx=0;exitDy=0;entryX=0.5;entryY=0;entryDx=0;entryDy=0;" edge="1" parent="1" source="XhJcunPItZMIZgrE6ota-2" target="XhJcunPItZMIZgrE6ota-3">
          <mxGeometry width="160" relative="1" as="geometry">
            <mxPoint x="230" y="300" as="sourcePoint" />
            <mxPoint x="390" y="300" as="targetPoint" />
          </mxGeometry>
        </mxCell>
        <mxCell id="XhJcunPItZMIZgrE6ota-40" value="AggiungiQuotaAScontrinoButtonPressed" style="text;html=1;align=center;verticalAlign=middle;resizable=0;points=[];autosize=1;strokeColor=none;fillColor=none;fontStyle=2;fontFamily=Century Gothic;" vertex="1" parent="1">
          <mxGeometry x="440" y="150" width="260" height="30" as="geometry" />
        </mxCell>
        <mxCell id="XhJcunPItZMIZgrE6ota-41" value="EffettuaScommessaButtonPressed" style="text;html=1;align=center;verticalAlign=middle;resizable=0;points=[];autosize=1;strokeColor=none;fillColor=none;fontStyle=2;fontFamily=Century Gothic;" vertex="1" parent="1">
          <mxGeometry x="220" y="318" width="220" height="30" as="geometry" />
        </mxCell>
      </root>
    </mxGraphModel>
  </diagram>
</mxfile>
